<svg width="1206" height="38" viewBox="0 0 1206 38" fill="none" xmlns="http://www.w3.org/2000/svg">
<path d="M1204.77 20.7678C1205.74 19.7915 1205.74 18.2085 1204.77 17.2322L1188.86 1.32233C1187.88 0.34602 1186.3 0.34602 1185.32 1.32233C1184.35 2.29864 1184.35 3.88155 1185.32 4.85786L1199.46 19L1185.32 33.1421C1184.35 34.1184 1184.35 35.7014 1185.32 36.6777C1186.3 37.654 1187.88 37.654 1188.86 36.6777L1204.77 20.7678ZM1199 21.5H1203V16.5H1199V21.5Z" fill="#2D635E"/>
<path d="M1.23223 20.7678C0.255922 19.7915 0.255922 18.2085 1.23223 17.2322L17.1421 1.32233C18.1184 0.34602 19.7014 0.34602 20.6777 1.32233C21.654 2.29864 21.654 3.88155 20.6777 4.85786L6.53553 19L20.6777 33.1421C21.654 34.1184 21.654 35.7014 20.6777 36.6777C19.7014 37.654 18.1184 37.654 17.1421 36.6777L1.23223 20.7678ZM7 21.5H3L3 16.5H7L7 21.5Z" fill="#2D635E"/>
</svg>
